<?xml version="1.0" standalone="no"?>
<!DOCTYPE svg PUBLIC "-//W3C//DTD SVG 20010904//EN"
 "http://www.w3.org/TR/2001/REC-SVG-20010904/DTD/svg10.dtd">
<svg version="1.0" xmlns="http://www.w3.org/2000/svg"
 width="200.000000pt" height="200.000000pt" viewBox="0 0 200.000000 200.000000"
 preserveAspectRatio="xMidYMid meet">

<g transform="translate(0.000000,200.000000) scale(0.100000,-0.100000)"
fill="#000000" stroke="none">
<path d="M445 1896 c-23 -14 -51 -43 -65 -68 l-24 -43 32 27 c36 30 49 28 98
-11 18 -15 24 -25 17 -28 -7 -3 -13 -11 -13 -19 0 -8 -5 -14 -11 -14 -6 0 -8
-9 -4 -20 4 -11 2 -20 -4 -20 -14 0 -33 -72 -21 -80 13 -8 -62 -90 -82 -90
-14 0 -33 -28 -25 -36 2 -2 30 12 61 31 32 19 62 35 66 35 4 0 15 -10 23 -22
l16 -23 -6 23 c-4 16 -1 22 10 22 9 0 19 -4 22 -10 3 -5 19 -10 35 -10 22 0
29 6 34 26 7 27 71 96 115 124 15 10 25 28 27 50 2 19 9 37 15 39 5 1 2 9 -8
16 -17 13 -17 14 0 20 9 4 17 11 17 16 0 5 -12 4 -27 -2 -26 -10 -25 -8 12 30
21 23 35 42 30 43 -6 1 -68 2 -140 2 -71 1 -137 4 -145 8 -9 5 -31 -2 -55 -16z"/>
<path d="M836 1814 c-3 -9 -6 -43 -6 -75 0 -73 -13 -103 -41 -94 -16 5 -23 -2
-41 -44 -19 -46 -38 -67 -38 -41 0 5 -7 7 -15 4 -20 -8 -19 -24 2 -24 21 0 12
-9 -16 -15 -11 -2 -21 0 -21 6 0 18 -32 9 -37 -11 -6 -23 -23 -27 -23 -5 0 23
-17 18 -23 -7 -4 -13 -1 -26 6 -30 8 -5 5 -8 -8 -8 -11 1 -29 7 -39 15 -28 21
-33 19 -45 -15 -5 -16 -15 -30 -20 -30 -6 0 -11 -9 -11 -21 0 -26 -13 -50 -50
-90 -16 -18 -27 -36 -24 -40 2 -4 -16 -11 -41 -14 -25 -4 -42 -11 -39 -16 3
-5 -1 -9 -10 -9 -8 0 -16 -5 -18 -12 -3 -7 -11 -9 -24 -4 -19 8 -19 8 1 15 17
7 16 9 -10 14 -17 3 -31 5 -32 4 -3 -4 -5 -34 -4 -64 1 -27 5 -33 24 -34 21 0
21 -1 -3 -11 -24 -10 -24 -10 -5 -18 11 -5 16 -9 10 -10 -5 -1 1 -5 15 -9 14
-4 28 -3 31 1 3 5 16 10 28 11 13 1 20 6 17 14 -3 7 2 13 10 13 8 0 12 5 8 11
-4 8 -1 8 12 1 22 -11 47 -5 38 9 -14 23 53 5 102 -27 41 -28 60 -35 80 -30
19 5 24 4 18 -6 -5 -8 -1 -8 11 2 10 8 16 10 12 4 -3 -6 5 -17 18 -24 22 -12
25 -20 25 -69 0 -48 24 -145 40 -161 10 -10 10 -30 0 -30 -6 0 -25 7 -41 16
-17 8 -38 14 -46 12 -28 -5 28 -60 75 -74 34 -9 44 -9 52 1 7 8 35 14 66 15
88 3 108 5 121 13 6 4 18 4 27 1 10 -4 16 -1 16 7 0 11 2 11 10 -1 13 -21 16
-13 23 56 l6 62 -47 9 c-44 8 -47 10 -50 41 -2 20 -8 32 -15 29 -7 -2 -27 9
-45 24 -31 28 -70 40 -57 19 3 -5 -1 -10 -9 -10 -18 0 -21 15 -7 25 11 6 10
45 -1 45 -16 0 -2 36 25 64 15 16 27 25 27 20 0 -5 5 -1 11 9 6 9 14 15 20 12
5 -4 9 0 9 8 0 18 83 15 107 -4 9 -8 28 -41 43 -74 l28 -60 -5 60 c-6 85 -6
84 -3 145 1 30 1 60 -1 65 -1 6 1 24 5 41 9 40 37 48 62 19 17 -20 20 -20 32
-6 12 14 13 13 9 -7 -3 -12 -1 -20 4 -17 10 7 21 -30 18 -60 -1 -11 -1 -28 -1
-39 2 -16 4 -17 19 -5 17 13 17 13 1 -12 -22 -35 -34 -115 -19 -133 6 -7 8
-22 4 -32 -6 -17 -5 -17 8 -4 9 9 21 26 28 39 8 15 19 21 30 18 10 -2 26 0 36
6 13 7 16 6 11 -2 -6 -10 19 -16 47 -12 4 0 7 -10 7 -23 0 -14 5 -28 11 -31 6
-4 8 -14 4 -23 -3 -8 0 -19 7 -23 10 -7 10 -11 0 -21 -20 -20 -14 -29 16 -22
l27 6 -30 -21 c-25 -17 -26 -21 -12 -27 18 -7 67 20 67 36 0 6 5 10 10 10 18
0 51 41 54 66 2 13 6 27 11 32 4 4 5 2 2 -4 -4 -7 3 -14 18 -16 13 -3 22 -2
20 2 -3 4 -7 25 -11 46 -3 22 -11 42 -16 45 -6 4 -7 13 -3 20 6 9 4 11 -8 6
-9 -3 -18 0 -21 9 -3 8 -1 14 4 14 6 0 10 7 10 15 0 8 5 15 10 15 6 0 10 16
10 35 0 40 26 50 34 13 43 -197 49 -317 21 -349 -10 -10 -12 -19 -6 -23 14 -9
32 28 36 77 2 23 9 95 16 159 11 105 10 122 -5 162 -17 44 -114 156 -135 156
-6 0 -10 3 -10 8 3 18 -2 22 -20 13 -17 -9 -18 -8 -13 11 6 22 5 22 -22 5 -15
-10 -30 -16 -33 -14 -2 3 6 11 18 18 l23 12 -22 17 c-11 10 -18 21 -14 25 4 5
0 6 -9 3 -9 -4 -22 -2 -30 2 -8 6 -17 4 -22 -3 -5 -7 -6 -4 -3 9 4 13 2 21 -6
22 -29 2 -49 9 -60 20 -7 7 -17 12 -23 12 -6 0 -20 8 -31 18 -10 10 -48 28
-84 41 -36 13 -69 27 -75 32 -5 5 -22 9 -37 9 -15 0 -28 4 -28 9 0 5 -12 11
-27 14 -49 9 -71 15 -91 26 -16 8 -21 7 -26 -5z m677 -431 c-7 -2 -19 -2 -25
0 -7 3 -2 5 12 5 14 0 19 -2 13 -5z m-1238 -191 c18 -11 17 -12 -12 -10 -18 1
-33 7 -33 13 0 16 13 27 19 17 3 -5 15 -14 26 -20z m513 -235 c9 4 20 11 24
17 5 8 8 7 8 -1 0 -6 -10 -19 -22 -27 -18 -13 -19 -16 -6 -16 9 0 20 5 23 10
9 15 25 12 25 -4 0 -33 -75 -16 -107 24 -21 26 -14 32 13 11 14 -11 32 -17 42
-14z"/>
<path d="M318 1733 c-27 -33 -49 -74 -46 -85 2 -5 13 7 23 28 11 22 26 47 34
57 8 9 12 17 9 17 -3 0 -12 -8 -20 -17z"/>
<path d="M251 1598 c-17 -47 -26 -158 -12 -138 6 8 11 33 11 55 0 22 4 56 10
74 13 45 6 52 -9 9z"/>
<path d="M221 1424 c0 -11 3 -14 6 -6 3 7 2 16 -1 19 -3 4 -6 -2 -5 -13z"/>
<path d="M207 1370 c-3 -11 -1 -20 4 -20 5 0 9 9 9 20 0 11 -2 20 -4 20 -2 0
-6 -9 -9 -20z"/>
<path d="M205 1310 c3 -5 8 -10 11 -10 2 0 4 5 4 10 0 6 -5 10 -11 10 -5 0 -7
-4 -4 -10z"/>
<path d="M205 1120 c-3 -5 1 -10 10 -10 9 0 13 5 10 10 -3 6 -8 10 -10 10 -2
0 -7 -4 -10 -10z"/>
<path d="M210 1099 c-18 -8 -21 -12 -11 -18 11 -7 11 -13 0 -32 -7 -13 -13
-45 -15 -71 -2 -41 0 -48 17 -48 14 0 19 7 19 29 0 16 7 34 15 41 9 7 13 21
10 31 -4 11 -2 19 5 19 6 0 8 5 5 10 -3 6 -1 10 5 10 8 0 8 6 0 20 -12 22 -15
23 -50 9z"/>
<path d="M1400 980 c-13 -8 -12 -10 3 -10 9 0 17 5 17 10 0 12 -1 12 -20 0z"/>
<path d="M1305 958 c-16 -6 -50 -18 -75 -27 -25 -9 -58 -14 -73 -13 -33 4 -57
-13 -57 -38 0 -20 50 -50 84 -50 30 -1 70 -36 62 -56 -6 -16 20 -51 31 -40 4
3 2 6 -3 6 -5 0 2 6 15 13 23 11 69 77 54 77 -3 0 2 10 13 21 19 22 19 22 -3
10 -12 -6 -25 -20 -28 -31 -3 -11 -17 -23 -31 -26 -13 -3 -24 -11 -24 -17 0
-6 -3 -8 -6 -4 -3 3 10 26 31 51 20 25 34 50 30 56 -3 5 -1 10 6 10 7 0 9 3 6
7 -4 3 -2 13 5 20 9 11 9 17 -3 24 -10 8 -9 9 8 4 12 -3 24 -1 28 5 8 13 -29
12 -70 -2z"/>
<path d="M183 908 c-24 -32 -26 -40 -6 -29 11 6 23 7 27 4 3 -3 6 3 6 15 0 24
-12 29 -27 10z"/>
<path d="M175 864 c-18 -13 -18 -14 4 -14 12 0 19 -4 16 -10 -4 -6 -11 -7 -17
-4 -7 5 -9 2 -5 -8 3 -9 3 -19 -1 -23 -11 -11 -7 -50 6 -60 7 -6 14 -17 15
-25 2 -8 8 -24 14 -35 9 -15 8 -22 -5 -31 -14 -10 -12 -11 11 -7 15 3 27 9 27
13 0 5 8 10 17 12 15 3 15 4 -1 20 -9 10 -15 22 -11 27 3 5 0 13 -7 18 -9 5
-3 10 17 14 l30 7 -32 1 c-37 1 -44 16 -12 26 l20 7 -20 18 c-12 9 -21 26 -21
38 0 26 -21 33 -45 16z"/>
<path d="M1353 787 c-10 -13 -31 -52 -48 -86 -23 -50 -27 -64 -16 -71 11 -6
13 -28 9 -94 -4 -61 -2 -86 6 -86 6 0 21 -3 33 -6 16 -4 23 0 28 16 6 18 9 20
17 9 6 -10 8 -2 6 24 -4 34 -2 37 22 38 14 0 19 3 12 6 -6 2 -9 9 -6 15 13 20
25 188 15 188 -4 0 -13 16 -21 35 -16 41 -31 44 -57 12z"/>
<path d="M1468 713 c7 -3 16 -2 19 1 4 3 -2 6 -13 5 -11 0 -14 -3 -6 -6z"/>
<path d="M1520 700 c0 -13 11 -13 30 0 12 8 11 10 -7 10 -13 0 -23 -4 -23 -10z"/>
<path d="M1570 662 c0 -4 -17 -6 -39 -4 -45 4 -64 -21 -34 -44 21 -16 47 -18
38 -4 -8 13 16 38 31 33 7 -2 14 3 17 12 4 8 2 15 -3 15 -6 0 -10 -3 -10 -8z
m-60 -22 c0 -5 -5 -10 -11 -10 -5 0 -7 5 -4 10 3 6 8 10 11 10 2 0 4 -4 4 -10z"/>
<path d="M238 646 c-24 -18 -23 -28 4 -24 11 2 22 11 24 21 3 20 -5 21 -28 3z"/>
<path d="M1593 624 c4 -4 -1 -13 -11 -20 -23 -18 -1 -18 22 -1 18 13 18 14 0
21 -10 4 -15 4 -11 0z"/>
<path d="M250 610 c-12 -8 -11 -10 7 -10 12 0 25 5 28 10 8 13 -15 13 -35 0z"/>
<path d="M242 568 c-8 -18 -11 -19 -11 -5 -1 12 -9 17 -28 16 -24 -2 -25 -2
-5 -6 12 -2 20 -8 17 -13 -11 -18 19 -22 32 -4 13 18 15 18 27 2 9 -12 16 -14
30 -6 17 10 16 12 -14 24 -40 17 -35 18 -48 -8z"/>
<path d="M1530 581 c0 -5 12 -11 27 -14 26 -5 26 -4 8 9 -22 16 -35 18 -35 5z"/>
<path d="M1603 555 c-20 -22 -16 -26 12 -13 14 6 25 15 25 20 0 13 -24 9 -37
-7z"/>
<path d="M309 539 c-11 -7 -10 -9 5 -9 17 0 17 -2 3 -23 -12 -19 -13 -24 -2
-24 8 0 12 4 9 9 -3 4 0 8 5 8 6 0 11 -7 11 -15 0 -18 11 -19 29 -2 9 7 12 8
7 0 -7 -14 3 -43 15 -43 19 0 1 41 -33 74 -25 24 -39 31 -49 25z"/>
<path d="M1620 520 c0 -5 6 -10 13 -10 8 0 14 -7 14 -15 0 -8 -6 -15 -14 -15
-7 0 -13 -7 -13 -15 0 -8 4 -15 9 -15 5 0 11 7 15 15 3 8 16 15 28 16 13 0 17
3 10 6 -6 2 -10 9 -6 14 3 5 -7 14 -21 19 -33 12 -35 12 -35 0z"/>
<path d="M260 510 c-12 -8 -9 -10 13 -10 16 0 26 4 22 10 -8 12 -16 12 -35 0z"/>
<path d="M1014 496 c-48 -18 -74 -36 -74 -51 0 -8 -7 -15 -15 -15 -8 0 -17
-14 -20 -34 -8 -42 2 -79 18 -69 9 5 9 3 0 -8 -7 -8 -9 -25 -6 -38 4 -15 8
-19 13 -11 5 9 13 9 26 2 11 -6 34 -9 52 -8 17 1 32 -1 32 -6 0 -4 -15 -7 -32
-7 -78 0 -148 -15 -148 -31 0 -5 -16 -2 -35 6 -30 12 -35 12 -35 0 0 -12 24
-25 55 -30 6 -1 10 -11 9 -23 0 -19 2 -21 15 -10 12 10 14 9 8 -5 -4 -12 -2
-15 9 -11 12 5 19 -7 15 -29 0 -5 4 -8 9 -8 6 0 10 -5 10 -10 0 -6 -13 -4 -30
5 -38 20 -38 13 0 -26 16 -18 27 -36 24 -40 -3 -5 2 -16 10 -25 12 -12 38 -15
123 -13 124 2 136 4 128 30 -4 13 -1 19 9 19 18 0 21 15 6 25 -5 3 -10 2 -10
-3 0 -6 -7 -13 -16 -16 -18 -7 -48 19 -39 34 3 6 -1 7 -9 4 -20 -8 -20 -9 0
-28 8 -9 12 -20 9 -26 -7 -12 -35 12 -35 30 0 6 -4 8 -10 5 -5 -3 -10 -2 -10
4 0 14 33 31 59 31 12 0 21 4 21 9 0 11 -25 32 -31 26 -3 -2 -5 6 -5 19 0 18
4 22 20 18 19 -5 19 -6 1 -12 -14 -5 -16 -9 -6 -15 8 -4 17 -2 22 6 6 10 1 20
-17 35 l-25 21 22 15 c20 13 20 15 6 21 -9 3 -24 -1 -33 -11 -10 -9 -20 -15
-23 -12 -3 3 -10 -10 -16 -27 -5 -18 -13 -33 -17 -33 -10 0 -10 -3 6 45 9 26
22 42 38 47 17 6 15 7 -9 3 -50 -7 -40 9 22 34 38 16 61 33 75 57 20 31 21 38
9 89 -9 39 -17 55 -28 55 -13 0 -13 -2 -3 -9 28 -18 -15 -19 -65 -2 -39 13
-57 15 -79 7z m76 -340 c0 -2 -8 -10 -17 -17 -16 -13 -17 -12 -4 4 13 16 21
21 21 13z m0 -41 c-7 -8 -17 -12 -23 -8 -6 4 -3 9 9 14 27 11 28 11 14 -6z"/>
<path d="M155 492 c11 -8 18 -27 19 -54 0 -10 6 -18 14 -18 7 0 32 -9 56 -19
23 -11 52 -17 64 -14 13 3 22 1 22 -6 0 -6 -4 -11 -10 -11 -5 0 -10 -5 -10
-10 0 -6 11 -3 25 6 23 15 25 15 25 0 0 -9 -5 -16 -12 -16 -6 0 -9 -2 -6 -5 3
-3 18 1 34 10 16 8 30 11 32 6 2 -5 18 -5 37 -1 19 4 33 4 30 0 -3 -5 1 -15 9
-23 8 -8 12 -18 8 -21 -3 -4 14 -4 38 -1 44 5 47 -8 5 -18 -20 -5 -20 -5 0 -6
12 0 37 7 58 18 35 18 36 18 27 0 -14 -24 -13 -29 5 -23 11 5 13 2 8 -12 -6
-16 -5 -17 9 -4 8 8 13 21 11 27 -3 7 0 13 6 13 15 0 14 -37 -2 -43 -6 -2 -9
-7 -5 -11 3 -4 16 -2 28 4 16 9 19 14 11 20 -9 5 -8 9 3 13 13 5 9 13 -21 42
-20 19 -41 36 -45 36 -4 1 -13 2 -18 3 -6 0 -14 6 -18 11 -7 10 -23 14 -70 19
-13 1 -27 7 -30 12 -4 6 -18 10 -32 9 -18 0 -25 5 -24 18 2 23 -13 22 -26 -2
-13 -25 -13 -41 0 -21 8 12 10 11 10 -7 0 -16 6 -23 20 -23 11 0 20 -4 20 -10
0 -13 -37 -13 -45 0 -4 6 -16 8 -28 5 -12 -2 -16 -2 -9 1 13 6 17 25 5 23 -22
-4 -32 2 -27 15 4 11 0 13 -17 9 -17 -5 -21 -3 -16 9 4 12 1 14 -15 10 -11 -2
-23 -1 -27 5 -11 16 -78 43 -108 43 -15 0 -23 -4 -18 -8z m445 -141 c0 -5 -7
-11 -14 -14 -10 -4 -13 -1 -9 9 6 15 23 19 23 5z"/>
<path d="M1641 440 c-20 -17 -21 -21 -7 -26 13 -5 14 -9 5 -20 -9 -11 -6 -16
11 -22 13 -5 35 -6 49 -4 l26 5 -30 11 c-34 12 -36 40 -6 63 14 11 14 12 -4
12 -11 0 -31 -8 -44 -19z"/>
<path d="M10 441 c0 -6 5 -13 10 -16 6 -3 10 1 10 9 0 9 -4 16 -10 16 -5 0
-10 -4 -10 -9z"/>
<path d="M1690 410 c0 -5 5 -10 11 -10 5 0 7 5 4 10 -3 6 -8 10 -11 10 -2 0
-4 -4 -4 -10z"/>
<path d="M62 403 c-7 -3 -24 -15 -37 -27 -23 -21 -24 -27 -24 -177 l0 -154 18
37 c10 20 41 59 69 87 42 42 47 50 31 53 -11 2 -18 8 -17 13 2 6 7 9 12 7 5
-2 3 5 -4 15 -22 29 -24 29 -17 8 7 -19 6 -19 -7 -1 -11 13 -12 25 -5 43 11
31 11 33 -1 33 -5 0 -9 -3 -7 -7 1 -5 -1 -9 -5 -10 -5 -2 -8 -1 -8 2 0 3 0 12
0 21 0 8 4 13 9 10 5 -3 11 6 14 19 5 28 -1 35 -21 28z"/>
<path d="M818 373 c7 -3 16 -2 19 1 4 3 -2 6 -13 5 -11 0 -14 -3 -6 -6z"/>
<path d="M877 325 c3 -8 9 -12 14 -9 12 7 11 11 -5 17 -10 4 -13 1 -9 -8z"/>
<path d="M1141 299 c-23 -19 -23 -19 -2 -19 12 0 24 7 28 15 9 24 0 25 -26 4z"/>
<path d="M715 281 c3 -5 1 -12 -5 -16 -5 -3 -10 -13 -10 -22 0 -13 3 -13 15
-3 17 14 20 50 4 50 -5 0 -8 -4 -4 -9z"/>
<path d="M741 264 c0 -11 3 -14 6 -6 3 7 2 16 -1 19 -3 4 -6 -2 -5 -13z"/>
<path d="M730 226 c6 -8 19 -12 27 -9 14 6 14 8 -3 14 -30 12 -37 10 -24 -5z"/>
<path d="M207 219 c-9 -6 -15 -14 -12 -19 3 -5 6 -25 7 -45 1 -20 5 -38 10
-41 4 -3 8 -13 8 -24 0 -10 7 -21 16 -24 9 -3 14 -12 11 -20 -6 -15 22 -46 41
-46 13 0 16 13 5 24 -4 3 -8 16 -10 28 -2 12 -8 27 -14 34 -6 7 -11 28 -12 47
-2 29 -4 33 -16 24 -12 -9 -13 -9 -7 1 4 7 12 27 16 45 8 28 8 30 -4 14 -12
-15 -15 -16 -18 -3 -2 11 -7 12 -21 5z"/>
<path d="M1753 187 c-17 -7 -35 -15 -39 -19 -4 -5 -24 -8 -45 -8 -21 0 -44 -7
-52 -15 -13 -13 -16 -13 -21 1 -3 8 -2 12 3 9 5 -3 12 -1 15 4 3 5 -1 12 -10
15 -23 9 -24 8 -24 -19 0 -24 -31 -51 -45 -37 -3 4 -6 2 -5 -3 5 -24 -1 -33
-19 -28 -12 3 -24 -3 -33 -16 -10 -13 -27 -21 -54 -22 -28 -2 -45 -9 -57 -26
-19 -24 -10 -32 11 -11 9 9 12 9 12 0 0 -7 12 -12 28 -12 29 0 66 22 93 53 19
24 69 31 69 11 0 -9 -3 -13 -7 -11 -5 3 -8 -8 -9 -24 -1 -26 2 -29 30 -29 17
0 40 7 50 15 11 8 15 15 9 15 -7 0 -11 10 -9 22 5 43 17 58 46 58 17 0 36 9
47 23 10 12 27 27 38 33 20 11 33 35 18 33 -4 0 -22 -6 -40 -12z"/>
<path d="M1972 151 c-11 -7 -9 -71 4 -109 9 -28 24 1 24 46 0 53 -10 75 -28
63z"/>
<path d="M1175 100 c-17 -8 -17 -9 7 -7 15 1 24 5 22 9 -3 4 -6 8 -7 7 -1 0
-11 -4 -22 -9z"/>
<path d="M1260 85 c0 -8 -7 -15 -16 -15 -8 0 -12 5 -9 10 3 6 2 10 -4 10 -8 0
-41 -54 -41 -66 0 -11 30 11 33 24 4 16 5 16 6 0 0 -9 -9 -24 -20 -32 -20 -14
-19 -14 18 -12 49 3 66 13 58 35 -12 30 -14 52 -4 46 5 -4 6 -12 2 -18 -4 -7
1 -6 11 2 13 11 14 16 4 22 -20 13 -38 10 -38 -6z m0 -29 c0 -3 -4 -8 -10 -11
-5 -3 -10 -1 -10 4 0 6 5 11 10 11 6 0 10 -2 10 -4z m20 -26 c0 -5 -10 -10
-22 -10 -19 0 -20 2 -8 10 19 13 30 13 30 0z"/>
<path d="M190 30 c0 -4 -17 -12 -37 -18 -37 -10 -36 -10 25 -11 59 -1 77 8 50
26 -18 11 -38 13 -38 3z"/>
<path d="M1335 30 c-3 -5 1 -10 9 -10 9 0 16 5 16 10 0 6 -4 10 -9 10 -6 0
-13 -4 -16 -10z"/>
</g>
</svg>
