<?xml version="1.0" standalone="no"?>
<!DOCTYPE svg PUBLIC "-//W3C//DTD SVG 20010904//EN"
 "http://www.w3.org/TR/2001/REC-SVG-20010904/DTD/svg10.dtd">
<svg version="1.0" xmlns="http://www.w3.org/2000/svg"
 width="400.000000pt" height="533.000000pt" viewBox="0 0 400.000000 533.000000"
 preserveAspectRatio="xMidYMid meet">

<g transform="translate(0.000000,533.000000) scale(0.100000,-0.100000)"
fill="#000000" stroke="none">
<path d="M2111 5192 c-112 -27 -238 -52 -266 -54 -80 -3 -325 -118 -325 -152
0 -7 -22 -27 -50 -45 -58 -38 -280 -257 -319 -315 -98 -147 -178 -281 -203
-340 -40 -92 -86 -277 -98 -389 -5 -51 -14 -119 -20 -152 -6 -33 -10 -170 -10
-305 -1 -221 1 -252 20 -315 12 -38 32 -112 45 -163 12 -51 31 -102 41 -113 9
-10 13 -19 9 -19 -5 0 -5 -4 1 -10 6 -6 35 15 82 60 91 87 148 121 283 164
109 36 130 37 218 14 39 -10 45 -9 58 8 12 16 15 17 23 4 7 -11 13 -4 28 30
11 25 30 55 43 66 37 33 141 98 169 106 14 3 53 18 88 33 34 14 66 23 71 20 5
-3 12 -40 15 -83 4 -42 8 -100 10 -129 4 -47 2 -52 -19 -57 -13 -3 -48 -26
-79 -51 -74 -61 -85 -96 -64 -208 9 -45 28 -120 43 -167 15 -47 33 -107 42
-135 9 -30 16 -94 17 -160 1 -120 -2 -132 -82 -295 l-37 -75 -58 -7 c-66 -8
-97 -28 -126 -79 -28 -49 -26 -99 4 -164 35 -72 70 -86 214 -85 145 2 175 0
183 -8 4 -4 5 -71 1 -149 -5 -126 -8 -142 -25 -146 -24 -7 -24 24 -1 61 l17
27 -22 -19 c-24 -21 -32 -86 -9 -86 8 0 12 -18 12 -56 l0 -56 -145 7 -146 7
-89 -132 c-218 -320 -214 -310 -115 -310 40 0 61 -4 62 -12 1 -7 2 -146 3
-308 l0 -295 38 -3 c31 -3 38 1 46 20 5 13 12 150 16 305 6 222 10 283 21 287
7 3 17 0 21 -7 4 -6 6 -114 5 -240 l-2 -228 42 3 43 3 -3 220 c-2 196 -1 217
11 190 33 -69 148 -136 259 -151 l47 -7 5 -71 c4 -39 7 -89 9 -111 2 -37 5
-40 33 -43 44 -4 66 26 85 121 l16 82 50 1 50 1 5 -88 c3 -49 11 -96 18 -104
18 -22 48 -18 74 10 20 22 29 49 51 163 6 29 15 37 59 57 46 20 56 30 74 74
12 27 22 59 22 70 0 20 3 21 238 15 130 -4 241 -10 245 -14 5 -4 13 -110 18
-236 6 -126 12 -244 15 -261 5 -33 5 -33 64 -33 32 0 62 5 66 11 8 14 6 158
-6 352 l-10 149 40 81 c22 45 48 96 57 112 10 17 31 59 47 93 15 35 31 61 33
58 3 -2 5 -175 4 -383 0 -208 3 -384 8 -392 12 -18 90 -18 102 0 5 8 9 57 9
109 0 131 -18 646 -26 753 -6 82 -8 89 -32 98 -13 5 -140 9 -281 9 -141 0
-314 3 -386 6 l-130 7 3 59 c3 46 -2 78 -23 137 -35 99 -82 174 -104 165 -40
-16 -54 -15 -89 9 -29 20 -46 25 -77 21 -22 -3 -71 -7 -110 -9 -38 -2 -79 -7
-90 -10 -28 -8 -47 8 -47 40 -1 33 18 47 52 40 100 -23 115 -24 135 -3 13 14
15 19 5 16 -24 -8 -138 10 -173 28 -18 9 -49 30 -69 46 -37 29 -38 32 -38 94
l0 64 51 0 c57 0 125 31 135 62 10 33 -7 77 -43 109 -33 28 -41 31 -90 27
l-53 -5 0 79 0 78 28 1 27 1 -25 7 c-14 4 -20 10 -15 13 23 14 231 59 274 60
45 0 275 -62 291 -78 5 -5 12 -47 16 -92 l7 -84 -29 15 c-56 28 -91 30 -139 7
-108 -52 -92 -163 27 -189 50 -12 88 -3 120 26 17 15 18 13 18 -36 0 -32 -8
-67 -19 -90 -48 -93 -192 -167 -266 -136 -17 7 -18 6 -7 -6 8 -9 37 -14 80
-15 112 -2 112 -1 123 -34 11 -31 24 -39 31 -18 4 10 14 8 44 -5 106 -47 305
-63 393 -32 169 59 190 221 45 340 -42 35 -53 39 -103 39 -31 0 -66 -4 -78 -8
-19 -7 -25 -1 -53 54 -66 132 -76 223 -37 370 8 30 25 100 37 155 12 55 29
125 37 157 17 62 12 131 -14 183 -36 73 -183 167 -330 211 -80 25 -359 26
-450 2 -35 -9 -64 -13 -66 -10 -2 4 -1 65 1 136 l4 129 177 -6 c205 -6 262
-17 354 -65 60 -31 69 -33 85 -21 9 8 42 22 72 32 30 9 77 23 103 32 36 11 93
15 230 15 l182 -1 115 -40 c133 -47 193 -57 216 -38 24 19 84 39 122 39 70 0
146 -55 182 -132 12 -27 26 -48 32 -48 21 0 1 223 -35 385 -20 88 -36 178 -37
200 -1 41 -41 177 -59 199 -5 6 -30 83 -55 171 -51 181 -111 333 -157 403 -17
26 -87 101 -154 167 -67 67 -127 130 -134 142 -12 24 -71 58 -306 177 -89 45
-174 91 -190 103 -65 45 -171 91 -225 96 -31 3 -67 8 -80 11 -44 10 -122 18
-239 24 -99 6 -126 4 -210 -16z m356 -118 c41 -13 80 -24 88 -24 7 0 22 -11
33 -25 11 -14 46 -45 78 -69 57 -42 172 -157 320 -316 66 -72 154 -218 154
-256 0 -9 9 -28 21 -42 54 -70 118 -189 144 -269 16 -48 37 -101 46 -117 10
-16 16 -33 13 -38 -3 -4 4 -20 15 -34 38 -49 23 -57 -26 -16 -44 36 -55 40
-122 45 -157 13 -382 -51 -455 -128 -18 -19 -38 -35 -43 -35 -24 0 -46 29 -49
65 -7 88 -16 143 -36 203 -11 35 -21 75 -22 90 -5 54 -39 190 -88 347 -27 88
-58 189 -69 224 -24 77 -156 296 -216 359 -16 17 -17 44 0 61 17 18 120 6 214
-25z m378 -60 c22 -11 68 -36 101 -57 34 -20 67 -37 74 -37 7 0 28 -11 47 -26
18 -14 48 -30 66 -36 40 -14 105 -58 173 -117 28 -25 77 -68 109 -95 l57 -49
-29 -23 c-17 -15 -42 -23 -64 -24 -92 -1 -103 -123 -18 -206 l38 -37 101 12
100 13 0 42 1 41 40 -80 c59 -117 88 -198 93 -257 2 -29 10 -69 18 -88 9 -19
18 -56 21 -82 l7 -48 -58 0 c-65 0 -145 -32 -188 -75 -14 -14 -27 -25 -29 -23
-1 2 -11 30 -23 63 -36 106 -83 229 -102 265 -10 19 -32 72 -49 117 -18 44
-45 101 -61 125 -16 23 -30 53 -30 64 0 12 -16 46 -36 75 -20 30 -40 64 -45
77 -16 40 -85 135 -143 195 -31 33 -56 63 -56 68 0 5 -25 33 -55 61 -30 28
-55 56 -55 63 0 7 -25 32 -55 56 -30 24 -55 47 -55 50 0 10 58 -6 105 -27z
m-682 12 c44 -11 53 -19 99 -87 57 -84 172 -316 183 -369 4 -19 11 -40 16 -46
5 -6 16 -44 24 -85 9 -41 42 -182 75 -314 73 -298 94 -415 72 -415 -5 0 -29
13 -53 30 -24 16 -50 30 -58 30 -8 0 -23 8 -34 18 -29 26 -141 54 -237 59 -62
3 -114 -1 -190 -17 -127 -26 -194 -53 -240 -97 -20 -18 -41 -33 -47 -33 -17 0
-132 -100 -164 -145 l-30 -40 6 290 c6 302 10 356 27 366 13 8 43 161 52 264
11 121 31 186 106 340 70 142 114 201 174 232 64 34 140 40 219 19z m-423 -65
c0 -16 -15 -66 -33 -112 -34 -86 -51 -143 -85 -284 -11 -44 -29 -114 -40 -155
-20 -70 -47 -234 -73 -445 -7 -49 -11 -180 -10 -290 l2 -200 -89 3 c-68 3 -97
0 -120 -12 -17 -9 -38 -16 -47 -16 -30 0 -159 -67 -187 -96 -37 -41 -76 -72
-109 -90 l-29 -15 0 40 c0 22 -5 43 -11 47 -11 7 -9 68 9 242 4 41 4 76 0 78
-11 7 3 107 17 124 7 8 16 51 19 94 10 107 45 256 62 263 8 3 14 13 14 23 0 9
8 27 19 39 10 11 21 38 25 59 3 21 18 56 33 78 16 21 35 53 43 69 22 46 71
116 111 160 20 22 58 64 85 94 27 30 103 99 169 154 66 55 126 112 133 128 13
25 47 46 80 48 7 1 12 -11 12 -28z m1504 -1135 c21 -7 41 -18 45 -23 3 -6 16
-13 28 -17 35 -11 139 -120 161 -168 10 -24 25 -74 32 -112 17 -93 8 -102 -86
-87 -38 6 -162 16 -276 23 -212 12 -214 12 -351 -26 -72 -20 -82 -20 -63 0 9
8 13 21 9 27 -3 6 -10 50 -14 99 l-7 88 62 63 c80 82 133 117 204 132 77 17
208 18 256 1z m-904 -58 c30 -7 79 -24 109 -40 30 -15 58 -25 63 -22 12 8 67
-28 107 -70 32 -33 33 -37 29 -100 -5 -83 -26 -110 -78 -102 -205 34 -411 31
-545 -9 -49 -15 -105 -31 -123 -35 -18 -4 -79 -31 -137 -59 -57 -28 -111 -51
-119 -51 -22 0 -43 38 -50 91 -6 41 -3 51 29 100 46 69 192 212 244 239 22 11
51 20 64 20 12 0 28 5 35 12 12 12 83 25 185 32 32 2 61 6 64 9 6 7 39 2 123
-15z m1462 -8 c10 -12 18 -31 18 -42 0 -10 10 -40 21 -66 12 -26 28 -76 36
-112 7 -36 16 -77 20 -92 5 -24 2 -28 -18 -28 -13 0 -43 5 -67 10 -29 7 -56 7
-87 -1 -60 -15 -101 1 -110 42 -4 16 -14 33 -22 38 -14 7 -52 133 -53 172 0
19 37 62 69 78 62 33 167 34 193 1z m-2278 -439 c9 -49 16 -95 16 -103 0 -25
-57 -71 -80 -65 -38 10 -185 -23 -267 -59 -17 -8 -35 -14 -40 -14 -16 -1 -111
-65 -153 -104 -23 -21 -43 -36 -45 -35 -2 2 -7 40 -13 84 l-9 80 36 42 c40 46
185 164 228 186 32 16 104 33 181 43 32 3 56 12 59 20 3 8 19 14 38 14 l32 0
17 -89z m556 -110 c0 -77 4 -142 8 -145 5 -3 12 -65 16 -138 3 -73 11 -209 16
-303 16 -286 12 -1185 -6 -1272 -2 -13 -11 -23 -19 -23 -14 0 -14 33 -8 268
11 382 9 743 -5 917 -15 186 -36 600 -34 676 1 31 -2 77 -7 102 -9 51 -7 57
21 57 17 0 18 -11 18 -139z m-49 -958 c-6 -21 -11 -50 -11 -65 0 -59 -89 -284
-103 -261 -3 5 3 26 14 47 11 20 17 41 14 45 -2 5 4 30 16 55 11 26 19 52 17
58 -2 6 -19 -27 -36 -73 -36 -94 -48 -116 -58 -107 -3 4 3 26 14 50 44 93 65
146 87 218 23 72 35 81 15 11 -5 -19 -8 -37 -5 -39 2 -2 11 21 20 53 9 31 19
54 22 52 2 -3 0 -22 -6 -44z m26 -72 c-3 -61 -12 -114 -22 -137 -44 -98 -78
-164 -85 -164 -17 0 -17 29 -1 56 30 50 101 274 101 322 0 12 3 22 6 22 4 0 4
-44 1 -99z m788 -26 c9 -55 25 -126 36 -158 12 -32 19 -60 16 -63 -2 -2 -20
44 -41 103 -28 84 -36 123 -35 173 1 80 4 72 24 -55z m-31 -14 c9 -51 23 -105
30 -120 32 -63 70 -191 60 -201 -8 -8 -25 31 -57 127 -54 165 -67 218 -67 275
1 62 14 30 34 -81z m111 -199 c-6 -7 -44 106 -54 163 -20 106 -10 92 24 -35
18 -69 31 -126 30 -128z m-216 172 c25 -20 31 -34 31 -64 0 -30 -6 -44 -31
-64 -34 -29 -59 -32 -110 -15 -80 27 -92 80 -33 135 46 44 98 47 143 8z m-417
-20 c20 -19 38 -71 30 -93 -9 -25 -80 -49 -119 -41 -19 5 -37 11 -41 14 -3 4
-8 34 -10 67 -3 45 -1 64 9 71 21 13 109 1 131 -18z m533 -174 c50 -167 51
-169 95 -236 37 -57 38 -74 2 -58 -9 4 -21 7 -27 6 -24 -3 -131 174 -122 201
2 6 20 -21 41 -59 57 -103 78 -136 83 -131 2 3 -9 26 -24 53 -67 115 -91 185
-97 284 -8 115 -1 106 49 -60z m-790 24 c-15 -44 -39 -99 -54 -124 l-26 -45
-3 33 c-2 20 3 41 11 50 8 10 31 53 51 96 20 44 39 77 42 74 3 -3 -7 -41 -21
-84z m1040 7 c-11 -4 -33 -11 -50 -15 -28 -6 -29 -5 -11 9 11 8 34 15 50 14
26 0 28 -2 11 -8z m-1186 -37 c26 -21 31 -33 31 -67 0 -68 -18 -117 -46 -127
-73 -28 -134 8 -134 79 0 46 26 71 74 71 59 0 85 -55 48 -100 -15 -18 -25 -22
-46 -16 -22 5 -27 11 -24 34 2 16 10 28 21 30 21 4 35 -27 16 -38 -7 -5 -10
-12 -6 -16 4 -4 15 0 24 9 14 13 14 21 5 42 -13 29 -37 32 -64 8 -22 -20 -23
-51 -1 -75 21 -24 54 -23 81 2 30 29 36 62 18 99 -21 40 -50 54 -92 47 -62
-12 -97 -86 -70 -150 18 -42 46 -56 117 -56 42 0 54 4 75 28 13 15 35 38 48
52 14 14 41 59 60 100 33 69 36 72 36 40 -1 -70 -65 -174 -135 -218 -33 -22
-51 -26 -104 -24 -75 2 -116 22 -142 72 -53 99 11 200 128 200 41 0 58 -5 82
-26z m1034 -26 c6 -22 5 -22 -8 -4 -17 22 -20 40 -6 32 5 -3 11 -16 14 -28z
m237 17 c66 -34 90 -116 55 -185 -23 -44 -82 -80 -130 -79 l-40 1 40 11 c23 7
55 22 73 35 28 20 32 29 32 69 0 44 -30 101 -64 125 -31 22 -133 -19 -156 -62
-30 -57 13 -120 82 -120 66 0 98 24 98 74 0 40 -26 66 -66 66 -40 0 -58 -26
-52 -76 3 -24 0 -34 -9 -34 -16 0 -35 46 -31 73 4 25 44 55 85 63 27 5 36 2
62 -27 43 -46 49 -84 19 -116 -39 -43 -72 -52 -136 -37 -96 22 -127 84 -79
155 49 73 144 102 217 64z m-50 -130 c0 -23 -24 -40 -41 -29 -13 8 -11 48 3
62 16 16 38 -3 38 -33z m-288 -84 c40 -59 25 -66 -24 -11 -54 61 -74 100 -57
111 9 5 20 -2 33 -24 10 -18 32 -52 48 -76z m-773 59 c-30 -53 -78 -97 -114
-105 -33 -7 -37 -11 46 57 25 21 51 49 59 63 7 14 17 25 22 25 5 0 -1 -18 -13
-40z m121 20 c0 -5 7 -10 15 -10 10 0 15 -11 15 -35 0 -19 -3 -35 -7 -36 -5 0
-16 -2 -25 -4 -15 -3 -18 4 -18 46 0 27 5 49 10 49 6 0 10 -4 10 -10z m610
-106 c0 -2 -4 -4 -9 -4 -12 0 -71 96 -64 104 5 5 73 -88 73 -100z m-719 37
c-6 -11 -8 -28 -5 -38 4 -13 3 -15 -4 -4 -7 9 -12 10 -16 2 -4 -6 -14 -11 -21
-11 -10 0 -4 14 18 43 31 42 49 47 28 8z m164 29 c3 -5 1 -10 -4 -10 -6 0 -11
5 -11 10 0 6 2 10 4 10 3 0 8 -4 11 -10z m495 -34 c0 -5 -7 -1 -15 10 -8 10
-14 24 -14 29 0 6 6 1 14 -9 8 -11 15 -24 15 -30z m-467 11 c-22 -10 -37 -46
-28 -69 3 -8 -15 -36 -40 -63 l-45 -50 0 56 c0 49 3 57 23 66 13 6 36 26 53
45 17 20 35 33 43 30 11 -4 9 -8 -6 -15z m728 -74 c13 -16 12 -17 -3 -4 -17
13 -22 21 -14 21 2 0 10 -8 17 -17z m-791 -263 c0 -5 6 -10 14 -10 7 0 20 -10
28 -22 19 -29 144 -44 194 -23 31 13 110 10 119 -4 2 -4 40 -3 83 2 115 14
153 -2 137 -54 -6 -17 -18 -19 -110 -19 -58 0 -115 5 -130 12 -18 8 -38 9 -73
1 -26 -6 -84 -8 -129 -6 -80 5 -83 6 -102 38 -12 21 -32 37 -55 45 -39 12 -43
19 -24 38 15 15 48 16 48 2z m-7 -88 c25 -43 16 -79 -25 -96 -40 -17 -62 -11
-93 26 -30 36 -31 48 -4 82 18 23 28 27 62 24 34 -3 44 -8 60 -36z m1285 -117
c14 -14 -25 -30 -76 -31 -329 -5 -660 -4 -674 1 -35 14 -19 34 30 38 66 6 714
-2 720 -8z m-1505 -21 c67 -6 74 -8 61 -22 -13 -12 -37 -14 -141 -9 -69 3
-127 8 -130 11 -3 2 -2 9 2 15 7 12 95 14 208 5z m653 -79 c16 -63 -67 -104
-102 -50 -15 23 -15 27 0 50 13 20 25 25 56 25 34 0 41 -4 46 -25z m809 4 c-4
-12 -16 -37 -27 -55 l-20 -34 -328 0 -327 0 -6 42 c-3 24 -4 45 -1 47 6 6 261
16 502 19 l214 3 -7 -22z m-1459 -2 c3 -2 -5 -21 -17 -41 l-21 -36 -124 0
c-68 0 -124 2 -124 6 0 3 10 23 23 46 l22 40 118 -5 c65 -3 121 -7 123 -10z
m-105 -128 c19 -10 19 -12 6 -27 -9 -10 -20 -30 -26 -45 -11 -27 -14 -29 -59
-23 -26 3 -73 8 -104 11 -32 4 -58 11 -58 17 0 6 9 26 21 44 l21 34 89 0 c50
0 99 -5 110 -11z m1467 -22 c13 -14 11 -21 -18 -60 l-32 -46 -97 -3 c-130 -5
-433 12 -448 24 -7 6 -13 30 -13 53 0 33 4 45 18 49 9 3 143 3 296 1 229 -3
282 -6 294 -18z m-1062 -418 c-3 -21 -10 -49 -16 -63 -8 -21 -13 -23 -37 -17
-25 7 -28 12 -31 55 -4 68 -1 72 48 68 l42 -4 -6 -39z m264 33 c0 -23 -40
-117 -49 -116 -6 1 -20 2 -31 3 -17 1 -20 8 -20 55 0 34 5 56 13 59 20 9 87 8
87 -1z"/>
<path d="M2902 4480 c-12 -5 -25 -16 -28 -25 -5 -12 -18 -14 -68 -9 -57 6 -64
4 -94 -21 -39 -32 -42 -71 -11 -121 25 -42 82 -75 175 -104 108 -33 123 -28
156 50 16 40 27 85 27 117 1 45 -3 57 -30 88 -25 28 -38 35 -68 34 -20 0 -46
-4 -59 -9z"/>
<path d="M2093 4397 c-28 -32 -32 -34 -86 -29 -118 10 -140 -7 -152 -112 -6
-57 19 -122 62 -165 46 -45 190 -124 207 -114 12 7 103 81 123 100 7 6 16 13
20 15 5 1 17 17 29 33 50 72 44 226 -11 281 -21 21 -34 24 -94 24 -66 0 -70
-2 -98 -33z"/>
<path d="M1112 4220 c-18 -11 -40 -36 -48 -55 -29 -71 -12 -149 69 -318 41
-85 43 -87 72 -82 17 3 32 10 33 15 2 6 14 10 27 10 13 0 25 4 27 9 2 5 32 32
68 60 129 104 157 224 72 314 -33 34 -72 35 -130 2 l-42 -24 -14 34 c-24 57
-75 71 -134 35z"/>
<path d="M2590 2098 c-24 -26 -25 -46 -4 -76 33 -47 134 -13 119 41 -16 54
-79 74 -115 35z"/>
<path d="M2182 2078 c-17 -17 -15 -54 4 -72 18 -19 75 -21 92 -4 18 18 15 53
-6 71 -22 20 -73 22 -90 5z"/>
<path d="M2171 1704 c0 -11 3 -14 6 -6 3 7 2 16 -1 19 -3 4 -6 -2 -5 -13z"/>
<path d="M2213 2183 c9 -2 25 -2 35 0 9 3 1 5 -18 5 -19 0 -27 -2 -17 -5z"/>
<path d="M2529 2170 c-13 -10 -19 -19 -12 -20 6 0 15 5 18 11 4 6 17 14 29 19
15 6 16 9 5 9 -9 1 -27 -8 -40 -19z"/>
<path d="M2300 2160 c14 -11 30 -20 35 -20 6 0 -1 9 -15 20 -14 11 -29 20 -35
20 -5 0 1 -9 15 -20z"/>
</g>
</svg>
